<?xml version="1.0" encoding="UTF-8" standalone="no"?>
<svg width="999px" height="1000px" viewBox="0 0 999 1000" version="1.1" xmlns="http://www.w3.org/2000/svg" xmlns:xlink="http://www.w3.org/1999/xlink" xmlns:sketch="http://www.bohemiancoding.com/sketch/ns">
    <!-- Generator: Sketch 3.3.2 (12043) - http://www.bohemiancoding.com/sketch -->
    <title>logo</title>
    <desc>Created with Sketch.</desc>
    <defs></defs>
    <g id="Page-1" stroke="none" stroke-width="1" fill="none" fill-rule="evenodd" sketch:type="MSPage">
        <g id="logo" sketch:type="MSLayerGroup">
            <path d="M424.46,6.37 C479.02,-1.9 534.93,-1.09 589.24,8.7 C664.3,22.1 736.05,53.29 797.24,98.76 C810.67,108.85 823.97,119.24 836.02,130.97 C834.08,133.05 832.13,135.12 830.11,137.11 C804.59,162.41 779.43,188.06 753.81,213.25 C750.2,210.55 746.81,207.57 743.37,204.66 C731.4,194.76 718.77,185.66 705.69,177.29 C642.81,136.88 567.74,115.69 493.01,117.31 C428.94,118.12 365.23,135.83 309.64,167.63 C259.08,196.62 215.15,237.15 182.5,285.46 C145.51,339.5 123.06,403.32 117.66,468.56 C117.31,473.78 117.24,479.04 116.33,484.21 C77.56,484.31 38.78,484.24 0,484.24 L0,475.8 C1.27,468.92 1.36,461.91 2.03,454.97 C5.46,417.2 13.24,379.85 24.99,343.8 C47.81,274.99 85.64,211.15 135.41,158.42 C145.62,146.95 156.99,136.61 168.38,126.35 C239.79,62.79 329.85,20.37 424.46,6.37 L424.46,6.37 Z" id="Shape" fill="#3E97C4" sketch:type="MSShapeGroup"></path>
            <path d="M869.25,165.73 C873.83,168.78 876.94,173.43 880.46,177.57 C908.19,209.6 930.95,245.74 949.51,283.77 C958.93,302.03 965.72,321.47 973.04,340.63 C982.17,368.12 989.22,396.36 993.35,425.05 C993.73,430.41 994.85,435.68 995.45,441.01 C996.24,456.04 999.16,470.94 998.64,486.03 C998.32,500.8 999.11,515.6 998.26,530.36 C996.97,542.07 996.17,553.83 994.75,565.52 C988.89,611.31 976.26,656.15 958.43,698.71 C950.85,715.59 943.05,732.44 933.4,748.26 C928.71,756.2 924.4,764.37 919.06,771.91 C909.22,787.19 898.75,802.12 886.96,815.98 C881.3,822.93 875.32,829.61 869.66,836.56 C842.36,809.17 814.94,781.9 787.68,754.47 C797.23,744.92 804.77,733.68 813.02,723.06 C833.97,693.76 850.38,661.35 862.5,627.46 C866.38,618.42 868.2,608.72 871.27,599.41 C873.21,592.98 874.03,586.28 875.86,579.82 C879.3,566.7 880.36,553.15 882.33,539.78 C883.64,529.88 883.18,519.87 884.36,509.97 C884.46,501.31 884.76,492.62 883.69,484.02 C883.49,475.54 882.96,467.1 881.98,458.68 C879.38,441.88 877.04,425 872.76,408.51 C870.55,399.42 867.8,390.46 865.2,381.47 C858.79,363.59 852.09,345.74 843.25,328.89 C838.36,318.17 832.41,307.97 826.06,298.06 C818.13,285.22 809.45,272.85 799.94,261.13 C796.33,256.13 791.69,252 788.15,246.96 C815.01,219.71 842.18,192.77 869.25,165.73 L869.25,165.73 Z" id="Shape" fill="#F5C70A" sketch:type="MSShapeGroup"></path>
            <path d="M0.38,517.55 C39.03,517.46 77.68,517.58 116.33,517.48 C117.37,524.44 117.22,531.5 118.07,538.47 C122.28,581.75 134.08,624.26 152.45,663.65 C184.56,731.9 237.15,790.33 301.78,829.23 C361.41,865.55 431.25,884.55 501,884.41 C542.77,884.12 584.56,877.28 624.07,863.63 C671.81,847.53 715.9,821.27 753.77,788.15 C781.25,815.58 808.53,843.22 835.99,870.67 C786.65,915.65 728.15,950.55 665.14,972.62 C620.78,988.18 574.2,997.15 527.29,1000 L472.68,1000 C415.6,996.66 358.96,984.02 306.24,961.77 C246.52,936.65 191.83,899.78 146.03,853.97 C88.97,796.71 45.9,725.55 22.15,648.25 C9.29,605.88 1.67,561.83 0.38,517.55 L0.38,517.55 Z" id="Shape" fill="#BA2005" sketch:type="MSShapeGroup"></path>
        </g>
    </g>
</svg>